<svg width="56" height="56" viewBox="0 0 56 56" fill="none" xmlns="http://www.w3.org/2000/svg">
<rect width="56" height="56" rx="12" fill="#2C5F8A"/>
<path d="M28 36C25.7778 36 23.8889 35.2222 22.3333 33.6667C20.7778 32.1111 20 30.2222 20 28C20 25.7778 20.7778 23.8889 22.3333 22.3333C23.8889 20.7778 25.7778 20 28 20C30.2222 20 32.1111 20.7778 33.6667 22.3333C35.2222 23.8889 36 25.7778 36 28C36 30.2222 35.2222 32.1111 33.6667 33.6667C32.1111 35.2222 30.2222 36 28 36ZM27 33.2333V30.4L25 32.4C25.3111 32.6 25.6278 32.7722 25.95 32.9167C26.2722 33.0611 26.6222 33.1667 27 33.2333ZM29 33.2333C29.3556 33.1667 29.7 33.0611 30.0333 32.9167C30.3667 32.7722 30.6889 32.6 31 32.4L29 30.4V33.2333ZM32.4 31C32.6 30.6889 32.7722 30.3667 32.9167 30.0333C33.0611 29.7 33.1667 29.3556 33.2333 29H30.4L32.4 31ZM30.4 27H33.2333C33.1667 26.6444 33.0611 26.3 32.9167 25.9667C32.7722 25.6333 32.6 25.3111 32.4 25L30.4 27ZM29 25.6L31 23.6C30.6889 23.4 30.3722 23.2278 30.05 23.0833C29.7278 22.9389 29.3778 22.8333 29 22.7667V25.6ZM28 29.3333C28.3778 29.3333 28.6944 29.2056 28.95 28.95C29.2056 28.6944 29.3333 28.3778 29.3333 28C29.3333 27.6222 29.2056 27.3056 28.95 27.05C28.6944 26.7944 28.3778 26.6667 28 26.6667C27.6222 26.6667 27.3056 26.7944 27.05 27.05C26.7944 27.3056 26.6667 27.6222 26.6667 28C26.6667 28.3778 26.7944 28.6944 27.05 28.95C27.3056 29.2056 27.6222 29.3333 28 29.3333ZM27 25.6V22.7667C26.6444 22.8333 26.3 22.9389 25.9667 23.0833C25.6333 23.2278 25.3111 23.4 25 23.6L27 25.6ZM22.7667 27H25.6L23.6 25C23.4 25.3111 23.2278 25.6333 23.0833 25.9667C22.9389 26.3 22.8333 26.6444 22.7667 27ZM23.6 31L25.6 29H22.7667C22.8333 29.3556 22.9389 29.7 23.0833 30.0333C23.2278 30.3667 23.4 30.6889 23.6 31ZM18.6667 40C17.9333 40 17.3056 39.7389 16.7833 39.2167C16.2611 38.6944 16 38.0667 16 37.3333V18.6667C16 17.9333 16.2611 17.3056 16.7833 16.7833C17.3056 16.2611 17.9333 16 18.6667 16H37.3333C38.0667 16 38.6944 16.2611 39.2167 16.7833C39.7389 17.3056 40 17.9333 40 18.6667V37.3333C40 38.0667 39.7389 38.6944 39.2167 39.2167C38.6944 39.7389 38.0667 40 37.3333 40H18.6667ZM18.6667 37.3333H37.3333V18.6667H18.6667V37.3333ZM18.6667 18.6667V37.3333V18.6667Z" fill="white"/>
</svg>
