<svg width="33" height="33" viewBox="0 0 33 33" fill="none" xmlns="http://www.w3.org/2000/svg">
<rect width="32.6667" height="32.6667" rx="8" fill="#DCF1FD"/>
<path d="M10.5 24.6667C10.0417 24.6667 9.64931 24.5035 9.32292 24.1771C8.99653 23.8507 8.83333 23.4583 8.83333 23V13.6042C8.58333 13.4514 8.38194 13.2535 8.22917 13.0104C8.07639 12.7674 8 12.4861 8 12.1667V9.66667C8 9.20833 8.16319 8.81597 8.48958 8.48958C8.81597 8.16319 9.20833 8 9.66667 8H23C23.4583 8 23.8507 8.16319 24.1771 8.48958C24.5035 8.81597 24.6667 9.20833 24.6667 9.66667V12.1667C24.6667 12.4861 24.5903 12.7674 24.4375 13.0104C24.2847 13.2535 24.0833 13.4514 23.8333 13.6042V23C23.8333 23.4583 23.6701 23.8507 23.3438 24.1771C23.0174 24.5035 22.625 24.6667 22.1667 24.6667H10.5ZM10.5 13.8333V23H22.1667V13.8333H10.5ZM9.66667 12.1667H23V9.66667H9.66667V12.1667ZM13.8333 18H18.8333V16.3333H13.8333V18Z" fill="#094771"/>
</svg>
