<svg width="14" height="17" viewBox="0 0 14 17" fill="none" xmlns="http://www.w3.org/2000/svg">
<path d="M6.66667 13.3333C5.88889 13.3333 5.14583 13.4549 4.4375 13.6979C3.72917 13.941 3.08333 14.3056 2.5 14.7917C2.5 14.8194 2.5 14.8542 2.5 14.8958C2.5 14.9375 2.5 14.9722 2.5 15H10.8333C10.8333 14.9722 10.8333 14.9375 10.8333 14.8958C10.8333 14.8542 10.8333 14.8194 10.8333 14.7917C10.25 14.3056 9.60417 13.941 8.89583 13.6979C8.1875 13.4549 7.44444 13.3333 6.66667 13.3333ZM6.66667 11.6667C7.625 11.6667 8.52083 11.8125 9.35417 12.1042C10.1875 12.3958 10.9583 12.8056 11.6667 13.3333V1.66667H1.66667V13.3333C2.375 12.8056 3.14583 12.3958 3.97917 12.1042C4.8125 11.8125 5.70833 11.6667 6.66667 11.6667ZM6.66667 8.33333C6.31944 8.33333 6.02431 8.21181 5.78125 7.96875C5.53819 7.72569 5.41667 7.43056 5.41667 7.08333C5.41667 6.73611 5.53819 6.44097 5.78125 6.19792C6.02431 5.95486 6.31944 5.83333 6.66667 5.83333C7.01389 5.83333 7.30903 5.95486 7.55208 6.19792C7.79514 6.44097 7.91667 6.73611 7.91667 7.08333C7.91667 7.43056 7.79514 7.72569 7.55208 7.96875C7.30903 8.21181 7.01389 8.33333 6.66667 8.33333ZM1.66667 16.6667C1.20833 16.6667 0.815972 16.5035 0.489583 16.1771C0.163194 15.8507 0 15.4583 0 15V1.66667C0 1.20833 0.163194 0.815972 0.489583 0.489583C0.815972 0.163194 1.20833 0 1.66667 0H11.6667C12.125 0 12.5174 0.163194 12.8438 0.489583C13.1701 0.815972 13.3333 1.20833 13.3333 1.66667V15C13.3333 15.4583 13.1701 15.8507 12.8438 16.1771C12.5174 16.5035 12.125 16.6667 11.6667 16.6667H1.66667ZM6.66667 10C7.47222 10 8.15972 9.71528 8.72917 9.14583C9.29861 8.57639 9.58333 7.88889 9.58333 7.08333C9.58333 6.27778 9.29861 5.59028 8.72917 5.02083C8.15972 4.45139 7.47222 4.16667 6.66667 4.16667C5.86111 4.16667 5.17361 4.45139 4.60417 5.02083C4.03472 5.59028 3.75 6.27778 3.75 7.08333C3.75 7.88889 4.03472 8.57639 4.60417 9.14583C5.17361 9.71528 5.86111 10 6.66667 10Z" fill="#72777F"/>
</svg>
